<?xml version="1.0" encoding="UTF-8" standalone="no"?>
<!DOCTYPE svg PUBLIC "-//W3C//DTD SVG 1.1//EN" "http://www.w3.org/Graphics/SVG/1.1/DTD/svg11.dtd">
<svg width="100%" height="100%" viewBox="0 0 1021 1041" version="1.1" xmlns="http://www.w3.org/2000/svg" xmlns:xlink="http://www.w3.org/1999/xlink" xml:space="preserve" xmlns:serif="http://www.serif.com/" style="fill-rule:evenodd;clip-rule:evenodd;stroke-linejoin:round;stroke-miterlimit:2;">
    <g transform="matrix(0.899863,0,0,0.899863,165.667,169.002)">
        <path d="M563.078,340.957C575.207,351.34 585.613,363.789 593.75,377.879C612.605,410.543 617.715,449.355 607.957,485.785C598.195,522.215 574.363,553.273 541.699,572.129L214.328,760.703C181.668,779.563 142.852,784.676 106.426,774.91C69.996,765.152 37.91,742.348 19.055,709.68C0.195,677.02 -4.914,638.207 4.848,601.777C14.609,565.348 38.441,534.289 71.102,515.434L200.273,440.855C188.145,430.473 178.762,417 170.625,402.906C151.77,370.246 146.66,331.43 156.418,295.004C166.18,258.574 190.012,227.516 222.672,208.66L551.07,19.059C583.734,0.199 622.547,-4.91 658.977,4.852C695.406,14.613 726.465,38.445 745.32,71.105C764.18,103.77 769.293,142.582 759.523,179.012C749.77,215.438 725.934,246.5 693.27,265.355L563.078,340.957ZM359.5,458.395L118.5,597.531C95.832,610.621 88.063,639.609 101.152,662.281C114.242,684.953 143.23,692.719 165.902,679.633L494.301,490.031C516.973,476.941 524.738,447.953 511.652,425.281L511.648,425.281C499.047,403.453 471.703,395.441 449.449,406.559L363.848,455.98C362.41,456.813 360.961,457.617 359.5,458.395ZM404.875,322.395L645.871,183.258C668.543,170.168 676.313,141.18 663.223,118.508L663.219,118.504C650.133,95.836 621.145,88.066 598.473,101.156L270.074,290.758C247.402,303.848 239.637,332.836 252.723,355.508L252.727,355.508C265.328,377.336 292.672,385.348 314.922,374.23L400.527,324.805C401.965,323.977 403.414,323.172 404.875,322.395Z" style="fill:rgb(20,20,0);"/>
    </g>
</svg>
